<svg width="20" height="22" viewBox="0 0 20 22" fill="none" xmlns="http://www.w3.org/2000/svg">
<path d="M19.2656 0.64625C18.7967 0.234709 18.1623 0.00249644 17.5 0H2.5C1.83696 0 1.20108 0.231785 0.732234 0.644365C0.263393 1.05695 9.85547e-07 1.61652 9.85547e-07 2.2V19.8C-0.000291357 20.0888 0.0644571 20.3749 0.190506 20.6415C0.316554 20.9082 0.501404 21.1503 0.734376 21.3538C1.20331 21.7653 1.83774 21.9975 2.5 22H17.5C18.163 22 18.7989 21.7682 19.2678 21.3556C19.7366 20.9431 20 20.3835 20 19.8V2.2C19.9972 1.61721 19.7333 1.05891 19.2656 0.64625ZM18.3359 19.8C18.3359 19.9951 18.2479 20.1822 18.0911 20.3202C17.9343 20.4581 17.7217 20.5356 17.5 20.5356H2.5C2.2783 20.5356 2.06567 20.4581 1.9089 20.3202C1.75214 20.1822 1.66406 19.9951 1.66406 19.8V2.2C1.66406 2.0049 1.75214 1.81779 1.9089 1.67983C2.06567 1.54188 2.2783 1.46438 2.5 1.46438H17.5C17.7217 1.46438 17.9343 1.54188 18.0911 1.67983C18.2479 1.81779 18.3359 2.0049 18.3359 2.2V19.8Z" fill="white"/>
<path d="M8.37646 16.4999H15.0431V17.5999H8.37646V16.4999Z" fill="white"/>
<path d="M3.93213 12.0999H15.0432V13.1999H3.93213V12.0999Z" fill="white"/>
<path d="M3.93213 7.69983H15.0432V9.89983H3.93213V7.69983Z" fill="white"/>
<path d="M3.93213 4.3999H15.0432V5.4999H3.93213V4.3999Z" fill="white"/>
</svg>
