<svg width="15" height="21" viewBox="0 0 15 21" fill="none" xmlns="http://www.w3.org/2000/svg">
<path d="M13.8441 16.4428L12.1575 13.63C12.1049 13.542 12.0078 13.3791 11.8136 13.3025C11.5546 13.203 11.3167 13.3351 11.2147 13.3913L9.52413 14.321C9.24734 14.4717 8.93982 14.6119 8.75047 14.5092C8.64285 14.4514 8.56027 14.3104 8.46317 14.132L6.59616 10.699L4.83842 7.22331C4.75022 7.04894 4.67819 6.89493 4.69111 6.7719C4.71338 6.55556 5.00189 6.37957 5.28068 6.23614L6.99678 5.35244C7.10078 5.29907 7.34354 5.17359 7.4075 4.90468C7.45485 4.70505 7.37592 4.53024 7.33347 4.43574L5.9751 1.44649C5.82174 1.10954 5.61172 0.648361 5.17511 0.409589C4.65271 0.123992 4.03281 0.288587 3.66297 0.388419C2.85613 0.604768 2.14153 0.826005 1.56813 1.34302C0.592478 2.22425 0.392572 3.64573 0.281705 4.90916C0.177298 6.09761 0.331059 7.50482 0.738535 9.09175C1.08249 10.4334 1.6085 11.7453 2.30328 12.9936C2.93534 14.2721 3.71385 15.4479 4.61985 16.4901C5.70834 17.7409 6.74663 18.6356 7.79427 19.2264C8.69216 19.7332 9.71023 20.2498 10.747 20.2498C10.9792 20.2498 11.2123 20.2246 11.4454 20.1667C12.1932 19.9809 12.7767 19.5116 13.4087 18.9624C13.6984 18.7098 14.184 18.2877 14.2439 17.6929C14.2933 17.1933 14.0335 16.7598 13.8441 16.4428ZM12.9749 18.4571C12.4092 18.9493 11.8921 19.3681 11.2868 19.5181C10.2476 19.7764 9.10574 19.2011 8.11801 18.6446C7.1509 18.0986 6.14174 17.2259 5.11841 16.0501C4.29576 15.1041 3.582 14.0415 2.99324 12.8877C2.98564 12.8592 2.97449 12.8318 2.96005 12.8062C2.93628 12.7648 2.9128 12.7233 2.88963 12.6815C2.86758 12.6371 2.84586 12.5926 2.82447 12.5479C2.8115 12.5211 2.79504 12.4961 2.77552 12.4737C2.16127 11.3338 1.69228 10.1417 1.38031 8.92469C0.991849 7.41154 0.844146 6.08048 0.942093 4.96782C1.04164 3.83154 1.21483 2.55874 2.01076 1.84004C2.47449 1.4216 3.11056 1.22727 3.83327 1.03375C4.20515 0.933917 4.59116 0.850407 4.85864 0.996256C5.08282 1.11887 5.22402 1.39837 5.37213 1.72433L6.73656 4.736C6.72524 4.7421 6.71148 4.74986 6.69487 4.75842L4.97878 5.64172C4.69188 5.78963 4.09465 6.0972 4.03153 6.70225C3.99714 7.03185 4.14199 7.31785 4.24761 7.52648L6.02116 11.0327L7.88171 14.453C7.99378 14.6584 8.14674 14.9403 8.43648 15.0976C8.96414 15.3844 9.55735 15.0617 9.8406 14.9077L11.532 13.978C11.5911 13.9454 11.617 13.9356 11.5887 13.9739L13.276 16.7884C13.4597 17.0947 13.6095 17.3693 13.5836 17.626C13.5536 17.9307 13.2663 18.2037 12.9749 18.4571Z" fill="#00CE7C" stroke="#00CE7C" stroke-width="0.5"/>
</svg>
