<svg width="14" height="22" viewBox="0 0 14 22" fill="none" xmlns="http://www.w3.org/2000/svg">
<path d="M13.3167 5.41163C12.8761 4.99583 12.2904 4.76667 11.6667 4.76667H10.1111V1.46667H10.5C10.9293 1.46667 11.2778 1.13813 11.2778 0.733333C11.2778 0.328533 10.9293 0 10.5 0H3.5C3.07067 0 2.72222 0.328533 2.72222 0.733333C2.72222 1.13813 3.07067 1.46667 3.5 1.46667H3.88889V4.76667H2.33333C1.70956 4.76667 1.12389 4.99583 0.684056 5.4109C0.243056 5.82597 0 6.37853 0 6.96667V18.7C0 19.2881 0.243056 19.8407 0.683278 20.255C1.12389 20.6708 1.70956 20.9 2.33333 20.9H2.7265V21.2667C2.7265 21.6715 3.07494 22 3.50428 22C3.93361 22 4.28206 21.6715 4.28206 21.2667V20.9H9.72222V21.2667C9.72222 21.6715 10.0707 22 10.5 22C10.9293 22 11.2778 21.6715 11.2778 21.2667V20.9H11.6667C12.2904 20.9 12.8761 20.6708 13.3159 20.2558C13.7569 19.8407 14 19.2881 14 18.7V6.96667C14 6.37853 13.7569 5.82597 13.3167 5.41163ZM5.44444 1.46667H8.55556V4.76667H5.44444V1.46667ZM12.4444 18.7C12.4444 18.8958 12.3636 19.0799 12.2162 19.2188C12.0696 19.3571 11.8743 19.4333 11.6667 19.4333H2.33333C2.12567 19.4333 1.93044 19.3571 1.78306 19.2181C1.63644 19.0799 1.55556 18.8958 1.55556 18.7V6.96667C1.55556 6.77087 1.63644 6.5868 1.78383 6.44783C1.93044 6.3096 2.12567 6.23333 2.33333 6.23333H11.6667C11.8743 6.23333 12.0696 6.3096 12.2169 6.44857C12.3636 6.5868 12.4444 6.77087 12.4444 6.96667V18.7Z" fill="#773DBC"/>
<path d="M4.40743 8.03003C4.04965 8.03003 3.75928 8.32571 3.75928 8.69003V16.61C3.75928 16.9743 4.04965 17.27 4.40743 17.27C4.7652 17.27 5.05557 16.9743 5.05557 16.61V8.69003C5.05557 8.32571 4.7652 8.03003 4.40743 8.03003ZM7.00002 8.03003C6.64224 8.03003 6.35187 8.32571 6.35187 8.69003V16.61C6.35187 16.9743 6.64224 17.27 7.00002 17.27C7.3578 17.27 7.64817 16.9743 7.64817 16.61V8.69003C7.64817 8.32571 7.3578 8.03003 7.00002 8.03003ZM9.59261 8.03003C9.23483 8.03003 8.94446 8.32571 8.94446 8.69003V16.61C8.94446 16.9743 9.23483 17.27 9.59261 17.27C9.95039 17.27 10.2408 16.9743 10.2408 16.61V8.69003C10.2408 8.32571 9.95039 8.03003 9.59261 8.03003Z" fill="#773DBC"/>
</svg>
