<svg width="23" height="23" viewBox="0 0 23 23" fill="none" xmlns="http://www.w3.org/2000/svg">
<path d="M20.5831 0.0499878H1.51647C1.12749 0.0499878 0.754435 0.204511 0.479381 0.479564C0.204328 0.754618 0.0498047 1.12767 0.0498047 1.51665V20.5833C0.0498047 20.9723 0.204328 21.3454 0.479381 21.6204C0.754435 21.8955 1.12749 22.05 1.51647 22.05H20.5831C20.9721 22.05 21.3452 21.8955 21.6202 21.6204C21.8953 21.3454 22.0498 20.9723 22.0498 20.5833V1.51665C22.0498 1.12767 21.8953 0.754618 21.6202 0.479564C21.3452 0.204511 20.9721 0.0499878 20.5831 0.0499878ZM20.5831 20.5833H1.51647V1.51665H20.5831V20.5833ZM5.18314 11.7833H16.9165C17.111 11.7833 17.2975 11.7061 17.435 11.5685C17.5725 11.431 17.6498 11.2445 17.6498 11.05C17.6498 10.8555 17.5725 10.669 17.435 10.5314C17.2975 10.3939 17.111 10.3167 16.9165 10.3167H5.18314C4.98865 10.3167 4.80212 10.3939 4.66459 10.5314C4.52707 10.669 4.4498 10.8555 4.4498 11.05C4.4498 11.2445 4.52707 11.431 4.66459 11.5685C4.80212 11.7061 4.98865 11.7833 5.18314 11.7833ZM5.18314 7.38332H16.9165C17.111 7.38332 17.2975 7.30606 17.435 7.16853C17.5725 7.03101 17.6498 6.84448 17.6498 6.64999C17.6498 6.4555 17.5725 6.26897 17.435 6.13144C17.2975 5.99392 17.111 5.91665 16.9165 5.91665H5.18314C4.98865 5.91665 4.80212 5.99392 4.66459 6.13144C4.52707 6.26897 4.4498 6.4555 4.4498 6.64999C4.4498 6.84448 4.52707 7.03101 4.66459 7.16853C4.80212 7.30606 4.98865 7.38332 5.18314 7.38332ZM5.18314 16.1833H16.9165C17.111 16.1833 17.2975 16.1061 17.435 15.9685C17.5725 15.831 17.6498 15.6445 17.6498 15.45C17.6498 15.2555 17.5725 15.069 17.435 14.9314C17.2975 14.7939 17.111 14.7167 16.9165 14.7167H5.18314C4.98865 14.7167 4.80212 14.7939 4.66459 14.9314C4.52707 15.069 4.4498 15.2555 4.4498 15.45C4.4498 15.6445 4.52707 15.831 4.66459 15.9685C4.80212 16.1061 4.98865 16.1833 5.18314 16.1833Z" fill="#00CE7C" stroke="#00CE7C" stroke-opacity="0.012" stroke-width="0.1"/>
</svg>
