<svg width="196" height="86" viewBox="0 0 196 86" fill="none" xmlns="http://www.w3.org/2000/svg">
<path d="M24.78 64L16.38 48.4H15.12V64H3.36V21.7H21.9C25.3 21.7 28.18 22.3 30.54 23.5C32.9 24.66 34.68 26.28 35.88 28.36C37.08 30.4 37.68 32.7 37.68 35.26C37.68 38.14 36.88 40.68 35.28 42.88C33.72 45.04 31.42 46.58 28.38 47.5L37.92 64H24.78ZM15.12 40.36H20.94C22.54 40.36 23.74 39.98 24.54 39.22C25.34 38.46 25.74 37.36 25.74 35.92C25.74 34.56 25.32 33.5 24.48 32.74C23.68 31.94 22.5 31.54 20.94 31.54H15.12V40.36ZM75.188 46.78C75.188 47.7 75.128 48.62 75.008 49.54H52.748C52.868 51.38 53.368 52.76 54.248 53.68C55.168 54.56 56.328 55 57.728 55C59.688 55 61.088 54.12 61.928 52.36H74.468C73.948 54.68 72.928 56.76 71.408 58.6C69.928 60.4 68.048 61.82 65.768 62.86C63.488 63.9 60.968 64.42 58.208 64.42C54.888 64.42 51.928 63.72 49.328 62.32C46.768 60.92 44.748 58.92 43.268 56.32C41.828 53.72 41.108 50.66 41.108 47.14C41.108 43.62 41.828 40.58 43.268 38.02C44.708 35.42 46.708 33.42 49.268 32.02C51.868 30.62 54.848 29.92 58.208 29.92C61.528 29.92 64.468 30.6 67.028 31.96C69.588 33.32 71.588 35.28 73.028 37.84C74.468 40.36 75.188 43.34 75.188 46.78ZM63.188 43.84C63.188 42.4 62.708 41.28 61.748 40.48C60.788 39.64 59.588 39.22 58.148 39.22C56.708 39.22 55.528 39.62 54.608 40.42C53.688 41.18 53.088 42.32 52.808 43.84H63.188ZM91.7606 19.6V64H80.0006V19.6H91.7606ZM96.5377 47.14C96.5377 43.66 97.1577 40.62 98.3977 38.02C99.6777 35.42 101.398 33.42 103.558 32.02C105.758 30.62 108.198 29.92 110.878 29.92C113.198 29.92 115.198 30.38 116.878 31.3C118.558 32.22 119.858 33.46 120.778 35.02V30.34H132.538V64H120.778V59.32C119.858 60.88 118.538 62.12 116.818 63.04C115.138 63.96 113.158 64.42 110.878 64.42C108.198 64.42 105.758 63.72 103.558 62.32C101.398 60.92 99.6777 58.92 98.3977 56.32C97.1577 53.68 96.5377 50.62 96.5377 47.14ZM120.778 47.14C120.778 44.98 120.178 43.28 118.978 42.04C117.818 40.8 116.378 40.18 114.658 40.18C112.898 40.18 111.438 40.8 110.278 42.04C109.118 43.24 108.538 44.94 108.538 47.14C108.538 49.3 109.118 51.02 110.278 52.3C111.438 53.54 112.898 54.16 114.658 54.16C116.378 54.16 117.818 53.54 118.978 52.3C120.178 51.06 120.778 49.34 120.778 47.14ZM160.239 64L154.179 55.54L149.379 64H136.479L147.699 46.54L135.999 30.34H149.199L155.259 38.8L160.119 30.34H173.019L161.559 47.5L173.439 64H160.239Z" fill="#655DC6"/>
<rect x="180" y="48" width="16" height="16" fill="#655DC6"/>
</svg>
