<svg width="25" height="24" viewBox="0 0 25 24" fill="none" xmlns="http://www.w3.org/2000/svg">
<path d="M2.47559 11.7478H22.0284V19.0823C22.0284 21.1115 20.3159 22.7495 18.1945 22.7495H6.30946C4.18805 22.7495 2.47559 21.1115 2.47559 19.0823V11.7478Z" stroke="white" stroke-width="1.5" stroke-linecap="round" stroke-linejoin="round"/>
<path d="M22.4753 7.34778H2.02796C1.32216 7.34778 0.75 7.89507 0.75 8.57019V10.5261C0.75 11.2012 1.32216 11.7485 2.02796 11.7485H22.4753C23.1811 11.7485 23.7532 11.2012 23.7532 10.5261V8.57019C23.7532 7.89507 23.1811 7.34778 22.4753 7.34778Z" stroke="white" stroke-width="1.5" stroke-linecap="round" stroke-linejoin="round"/>
<path d="M14.2707 11.7478H10.2451V22.7495H14.2707V11.7478Z" stroke="white" stroke-width="1.5" stroke-linecap="round" stroke-linejoin="round"/>
<path d="M9.38935 7.18872C12.1497 7.70213 12.8398 7.06647 12.3158 4.38938C11.7024 1.26 8.46921 -0.316907 6.50115 1.55339C4.50754 3.42368 6.14334 6.58973 9.38935 7.18872V7.18872Z" stroke="white" stroke-width="1.5" stroke-linecap="round" stroke-linejoin="round"/>
<path d="M15.5616 7.18872C12.8012 7.70213 12.111 7.06647 12.635 4.38938C13.2484 1.26 16.4816 -0.316907 18.4497 1.55339C20.4433 3.42368 18.8076 6.58973 15.5616 7.18872V7.18872Z" stroke="white" stroke-width="1.5" stroke-linecap="round" stroke-linejoin="round"/>
</svg>
