<svg width="22" height="22" viewBox="0 0 22 22" fill="none" xmlns="http://www.w3.org/2000/svg">
<path d="M2.1001 10.598H19.1002V17.2657C19.1002 19.1105 17.6113 20.5996 15.7668 20.5996H5.43343C3.58899 20.5996 2.1001 19.1105 2.1001 17.2657V10.598Z" stroke="#00CE7C" stroke-width="1.2" stroke-linecap="round" stroke-linejoin="round"/>
<path d="M19.489 6.59808H1.71121C1.09756 6.59808 0.600098 7.09562 0.600098 7.70937V9.48743C0.600098 10.1012 1.09756 10.5987 1.71121 10.5987H19.489C20.1026 10.5987 20.6001 10.1012 20.6001 9.48743V7.70937C20.6001 7.09562 20.1026 6.59808 19.489 6.59808Z" stroke="#00CE7C" stroke-width="1.2" stroke-linecap="round" stroke-linejoin="round"/>
<path d="M12.356 10.598H8.85596V20.5996H12.356V10.598Z" stroke="#00CE7C" stroke-width="1.2" stroke-linecap="round" stroke-linejoin="round"/>
<path d="M8.11125 6.45343C10.5112 6.92017 11.1112 6.34229 10.6557 3.90858C10.1223 1.06369 7.31124 -0.369862 5.60013 1.3304C3.86679 3.03067 5.28903 5.9089 8.11125 6.45343V6.45343Z" stroke="#00CE7C" stroke-width="1.2" stroke-linecap="round" stroke-linejoin="round"/>
<path d="M13.4777 6.45343C11.0777 6.92017 10.4776 6.34229 10.9332 3.90858C11.4665 1.06369 14.2776 -0.369862 15.9887 1.3304C17.7221 3.03067 16.2999 5.9089 13.4777 6.45343V6.45343Z" stroke="#00CE7C" stroke-width="1.2" stroke-linecap="round" stroke-linejoin="round"/>
</svg>
