<svg width="24" height="24" viewBox="0 0 24 24" fill="none" xmlns="http://www.w3.org/2000/svg">
<path d="M5.19048 9.38095C7.50482 9.38095 9.38095 7.50481 9.38095 5.19048C9.38095 2.87614 7.50482 1 5.19048 1C2.87614 1 1 2.87614 1 5.19048C1 7.50481 2.87614 9.38095 5.19048 9.38095Z" stroke="white" stroke-width="2" stroke-linecap="round" stroke-linejoin="round"/>
<path d="M18.8096 9.38095C21.124 9.38095 23.0001 7.50481 23.0001 5.19048C23.0001 2.87614 21.124 1 18.8096 1C16.4953 1 14.6191 2.87614 14.6191 5.19048C14.6191 7.50481 16.4953 9.38095 18.8096 9.38095Z" stroke="white" stroke-width="2" stroke-linecap="round" stroke-linejoin="round"/>
<path d="M5.19048 23C7.50482 23 9.38095 21.1238 9.38095 18.8095C9.38095 16.4952 7.50482 14.619 5.19048 14.619C2.87614 14.619 1 16.4952 1 18.8095C1 21.1238 2.87614 23 5.19048 23Z" stroke="white" stroke-width="2" stroke-linecap="round" stroke-linejoin="round"/>
<path d="M18.8096 23C21.124 23 23.0001 21.1238 23.0001 18.8095C23.0001 16.4952 21.124 14.619 18.8096 14.619C16.4953 14.619 14.6191 16.4952 14.6191 18.8095C14.6191 21.1238 16.4953 23 18.8096 23Z" stroke="white" stroke-width="2" stroke-linecap="round" stroke-linejoin="round"/>
</svg>
