<svg width="414" height="863" viewBox="0 0 414 863" fill="none" xmlns="http://www.w3.org/2000/svg">
<g clip-path="url(#clip0_3614_1053)">
<rect width="414" height="863" fill="#00CE7C"/>
<path d="M-2.5 172.5L248.5 209L242.5 183L-2.5 124.5V172.5Z" fill="#655DC6" fill-opacity="0.24"/>
<path d="M-2.5 160.5L248.5 197L242.5 171L-2.5 112.5V160.5Z" fill="#655DC6"/>
<path d="M0 729.5L429.5 661L414 704.5L0 841V729.5Z" fill="#655DC6" fill-opacity="0.24"/>
<path d="M184 862.5L413.5 802L413.5 837.5L413.5 862.5L229 862.5L184 862.5Z" fill="#655DC6"/>
<path d="M0 711.5L429.5 643L414 686.5L0 823V711.5Z" fill="#655DC6"/>
<path d="M278.414 362.089C278.98 364.492 279.05 364.589 278.915 367.089C278.861 368.089 277.653 368.731 276.414 369.089C274.044 369.151 273.53 369.373 271.414 368.089C270.8 365.86 270.556 365.761 272.414 364.089C274.561 362.704 275.853 362.089 278.414 362.089Z" fill="#00CE7C"/>
<path d="M217 364C218.98 364 220.96 364 223 364C223.66 365.32 224.32 366.64 225 368C221.625 368.125 221.625 368.125 218 368C217.34 367.34 216.68 366.68 216 366C216.33 365.34 216.66 364.68 217 364Z" fill="#00CE7C"/>
</g>
<defs>
<clipPath id="clip0_3614_1053">
<rect width="414" height="863" fill="white"/>
</clipPath>
</defs>
</svg>
