<svg width="225" height="86" viewBox="0 0 225 86" fill="none" xmlns="http://www.w3.org/2000/svg">
<path d="M35.22 21.7V31.06H23.94V64H12.18V31.06H1.02V21.7H35.22ZM51.3309 36.28C52.6509 34.36 54.2509 32.84 56.1309 31.72C58.0109 30.6 60.0309 30.04 62.1909 30.04V42.58H58.8909C56.3309 42.58 54.4309 43.08 53.1909 44.08C51.9509 45.08 51.3309 46.82 51.3309 49.3V64H39.5709V30.34H51.3309V36.28ZM64.4869 47.14C64.4869 43.66 65.1069 40.62 66.3469 38.02C67.6269 35.42 69.3469 33.42 71.5069 32.02C73.7069 30.62 76.1469 29.92 78.8269 29.92C81.1469 29.92 83.1469 30.38 84.8269 31.3C86.5069 32.22 87.8069 33.46 88.7269 35.02V30.34H100.487V64H88.7269V59.32C87.8069 60.88 86.4869 62.12 84.7669 63.04C83.0869 63.96 81.1069 64.42 78.8269 64.42C76.1469 64.42 73.7069 63.72 71.5069 62.32C69.3469 60.92 67.6269 58.92 66.3469 56.32C65.1069 53.68 64.4869 50.62 64.4869 47.14ZM88.7269 47.14C88.7269 44.98 88.1269 43.28 86.9269 42.04C85.7669 40.8 84.3269 40.18 82.6069 40.18C80.8469 40.18 79.3869 40.8 78.2269 42.04C77.0669 43.24 76.4869 44.94 76.4869 47.14C76.4869 49.3 77.0669 51.02 78.2269 52.3C79.3869 53.54 80.8469 54.16 82.6069 54.16C84.3269 54.16 85.7669 53.54 86.9269 52.3C88.1269 51.06 88.7269 49.34 88.7269 47.14ZM123.328 52.9L129.628 30.34H142.168L130.588 64H115.948L104.368 30.34H116.908L123.328 52.9ZM178.313 46.78C178.313 47.7 178.253 48.62 178.133 49.54H155.873C155.993 51.38 156.493 52.76 157.373 53.68C158.293 54.56 159.453 55 160.853 55C162.813 55 164.213 54.12 165.053 52.36H177.593C177.073 54.68 176.053 56.76 174.533 58.6C173.053 60.4 171.173 61.82 168.893 62.86C166.613 63.9 164.093 64.42 161.333 64.42C158.013 64.42 155.053 63.72 152.453 62.32C149.893 60.92 147.873 58.92 146.393 56.32C144.953 53.72 144.233 50.66 144.233 47.14C144.233 43.62 144.953 40.58 146.393 38.02C147.833 35.42 149.833 33.42 152.393 32.02C154.993 30.62 157.973 29.92 161.333 29.92C164.653 29.92 167.593 30.6 170.153 31.96C172.713 33.32 174.713 35.28 176.153 37.84C177.593 40.36 178.313 43.34 178.313 46.78ZM166.313 43.84C166.313 42.4 165.833 41.28 164.873 40.48C163.913 39.64 162.713 39.22 161.273 39.22C159.833 39.22 158.653 39.62 157.733 40.42C156.813 41.18 156.213 42.32 155.933 43.84H166.313ZM194.886 19.6V64H183.126V19.6H194.886Z" fill="#655DC6"/>
<rect x="208.856" y="47.928" width="16.1441" height="16.1441" fill="#655DC6"/>
</svg>
