<svg width="195" height="86" viewBox="0 0 195 86" fill="none" xmlns="http://www.w3.org/2000/svg">
<path d="M62.94 21.7L52.56 64H38.1L32.28 38.08L26.34 64H11.88L1.62 21.7H14.34L19.26 50.62L25.92 21.7H38.82L45.3 50.38L50.22 21.7H62.94ZM79.6903 36.28C81.0103 34.36 82.6103 32.84 84.4903 31.72C86.3703 30.6 88.3903 30.04 90.5503 30.04V42.58H87.2503C84.6903 42.58 82.7903 43.08 81.5503 44.08C80.3103 45.08 79.6903 46.82 79.6903 49.3V64H67.9303V30.34H79.6903V36.28ZM92.8463 47.14C92.8463 43.66 93.4663 40.62 94.7063 38.02C95.9863 35.42 97.7063 33.42 99.8663 32.02C102.066 30.62 104.506 29.92 107.186 29.92C109.506 29.92 111.506 30.38 113.186 31.3C114.866 32.22 116.166 33.46 117.086 35.02V30.34H128.846V64H117.086V59.32C116.166 60.88 114.846 62.12 113.126 63.04C111.446 63.96 109.466 64.42 107.186 64.42C104.506 64.42 102.066 63.72 99.8663 62.32C97.7063 60.92 95.9863 58.92 94.7063 56.32C93.4663 53.68 92.8463 50.62 92.8463 47.14ZM117.086 47.14C117.086 44.98 116.486 43.28 115.286 42.04C114.126 40.8 112.686 40.18 110.966 40.18C109.206 40.18 107.746 40.8 106.586 42.04C105.426 43.24 104.846 44.94 104.846 47.14C104.846 49.3 105.426 51.02 106.586 52.3C107.746 53.54 109.206 54.16 110.966 54.16C112.686 54.16 114.126 53.54 115.286 52.3C116.486 51.06 117.086 49.34 117.086 47.14ZM147.308 35.02C148.228 33.46 149.528 32.22 151.208 31.3C152.888 30.38 154.868 29.92 157.148 29.92C159.828 29.92 162.248 30.62 164.408 32.02C166.608 33.42 168.328 35.42 169.568 38.02C170.848 40.62 171.488 43.66 171.488 47.14C171.488 50.62 170.848 53.68 169.568 56.32C168.328 58.92 166.608 60.92 164.408 62.32C162.248 63.72 159.828 64.42 157.148 64.42C154.868 64.42 152.888 63.96 151.208 63.04C149.568 62.12 148.268 60.88 147.308 59.32V80.08H135.548V30.34H147.308V35.02ZM159.548 47.14C159.548 44.94 158.948 43.24 157.748 42.04C156.588 40.8 155.148 40.18 153.428 40.18C151.708 40.18 150.248 40.8 149.048 42.04C147.888 43.28 147.308 44.98 147.308 47.14C147.308 49.34 147.888 51.06 149.048 52.3C150.248 53.54 151.708 54.16 153.428 54.16C155.148 54.16 156.588 53.54 157.748 52.3C158.948 51.02 159.548 49.3 159.548 47.14Z" fill="#655DC6"/>
<rect x="179" y="48" width="16" height="16" fill="#655DC6"/>
</svg>
